<svg xmlns="http://www.w3.org/2000/svg" width="567" height="990" viewBox="0 0 567 990">
  <defs>
    <style>
      .cls-1, .cls-2 {
        fill: #fff;
      }

      .cls-2 {
        fill-rule: evenodd;
      }
    </style>
  </defs>
  <circle id="Elipse_1" data-name="Elipse 1" class="cls-1" cx="178.703" cy="52.641" r="52.703"/>
  <path id="Forma_1" data-name="Forma 1" class="cls-2" d="M167.28,56.895l17.44-9.79,151,269-17.44,9.79Z"/>
  <path id="Forma_2" data-name="Forma 2" class="cls-2" d="M520.457,523.338l-14.914,13.324-176-197,14.914-13.324Z"/>
  <path id="Forma_3" data-name="Forma 3" class="cls-2" d="M58.377,501.431L47.623,484.569l265-169,10.754,16.862Z"/>
  <path id="Forma_4" data-name="Forma 4" class="cls-2" d="M50.577,499.7l14.846-13.4,204,226-14.846,13.4Z"/>
  <path id="Forma_5" data-name="Forma 5" class="cls-2" d="M264,723l-12-16L508,515l12,16Z"/>
  <path id="Forma_6" data-name="Forma 6" class="cls-2" d="M254.1,708.875l15.81,12.25-172,222L82.1,930.875Z"/>
  <circle id="Elipse_2" data-name="Elipse 2" class="cls-1" cx="328.922" cy="321.328" r="52.703"/>
  <ellipse id="Elipse_3" data-name="Elipse 3" class="cls-1" cx="52.703" cy="488.344" rx="52.703" ry="52.656"/>
  <circle id="Elipse_4" data-name="Elipse 4" class="cls-1" cx="514.297" cy="517.39" r="52.703"/>
  <ellipse id="Elipse_5" data-name="Elipse 5" class="cls-1" cx="258.672" cy="706.188" rx="52.703" ry="52.657"/>
  <ellipse id="Elipse_6" data-name="Elipse 6" class="cls-1" cx="84.203" cy="937.36" rx="52.703" ry="52.64"/>
</svg>
